<svg width="116" height="119" viewBox="0 0 116 119" fill="none" xmlns="http://www.w3.org/2000/svg">
<g filter="url(#filter0_f_306_292)">
<path d="M63.1839 115C89.6507 115 111.106 93.4356 111.106 66.8346C111.106 40.2336 89.6507 18.6692 63.1839 18.6692C36.7171 18.6692 15.2615 40.2336 15.2615 66.8346C15.2615 93.4356 36.7171 115 63.1839 115Z" fill="#FA9E42"/>
<g filter="url(#filter1_f_306_292)">
<path d="M59.7209 59.985C75.648 51.5254 84.5564 37.1308 79.6183 27.8338C74.6802 18.5367 57.7656 17.8578 41.8385 26.3173C25.9115 34.7769 17.0031 49.1715 21.9412 58.4686C26.8793 67.7657 43.7938 68.4446 59.7209 59.985Z" fill="#F8E36F"/>
</g>
</g>
<defs>
<filter id="filter0_f_306_292" x="11.2615" y="14.6692" width="103.845" height="104.331" filterUnits="userSpaceOnUse" color-interpolation-filters="sRGB">
<feFlood flood-opacity="0" result="BackgroundImageFix"/>
<feBlend mode="normal" in="SourceGraphic" in2="BackgroundImageFix" result="shape"/>
<feGaussianBlur stdDeviation="2" result="effect1_foregroundBlur_306_292"/>
</filter>
<filter id="filter1_f_306_292" x="0.578857" y="0.391357" width="100.402" height="85.5197" filterUnits="userSpaceOnUse" color-interpolation-filters="sRGB">
<feFlood flood-opacity="0" result="BackgroundImageFix"/>
<feBlend mode="normal" in="SourceGraphic" in2="BackgroundImageFix" result="shape"/>
<feGaussianBlur stdDeviation="10" result="effect1_foregroundBlur_306_292"/>
</filter>
</defs>
</svg>
