<svg width="106" height="121" viewBox="0 0 106 121" fill="none" xmlns="http://www.w3.org/2000/svg">
<circle cx="13.5" cy="23.5" r="5.5" fill="white"/>
<circle cx="30.5" cy="12.5" r="5.5" fill="white"/>
<circle cx="51.5" cy="21.5" r="5.5" fill="white"/>
<circle cx="92.5" cy="18.5" r="5.5" fill="white"/>
<circle cx="21.5" cy="40.5" r="5.5" fill="white"/>
<circle cx="38.5" cy="54.5" r="5.5" fill="white"/>
<circle cx="15.5" cy="65.5" r="5.5" fill="white"/>
<circle cx="27.5" cy="89.5" r="5.5" fill="white"/>
<circle cx="39.5" cy="108.5" r="5.5" fill="white"/>
<circle cx="16.5" cy="108.5" r="5.5" fill="white"/>
<circle cx="56.5" cy="60.5" r="5.5" fill="white"/>
<circle cx="70.5" cy="45.5" r="5.5" fill="white"/>
<circle cx="87.5" cy="54.5" r="5.5" fill="white"/>
<circle cx="92.5" cy="111.5" r="5.5" fill="white"/>
<circle cx="54.5" cy="95.5" r="5.5" fill="white"/>
<circle cx="43.5" cy="76.5" r="5.5" fill="white"/>
<circle cx="70.5" cy="18.5" r="5.5" fill="white"/>
<circle cx="81.5" cy="87.5" r="5.5" fill="white"/>
<rect x="2" y="2" width="102" height="117" stroke="#AAAAFF" stroke-width="4"/>
</svg>
