<svg width="181" height="342" viewBox="0 0 181 342" fill="none" xmlns="http://www.w3.org/2000/svg">
<g filter="url(#filter0_f_240_6768)">
<g filter="url(#filter1_d_240_6768)">
<path d="M47.4002 199.055L47.4002 63C47.4002 53.7174 51.0877 44.815 57.6514 38.2513C64.2152 31.6875 73.1176 28 82.4002 28C91.6828 28 100.585 31.6875 107.149 38.2513C113.713 44.815 117.4 53.7174 117.4 63L117.4 201.97C126.477 209.088 133.309 218.672 137.08 229.573C140.851 240.475 141.4 252.232 138.662 263.437C135.923 274.642 130.014 284.821 121.64 292.755C113.267 300.688 102.784 306.04 91.4472 308.17C87.3325 309.261 83.0544 309.6 78.8192 309.17C66.0471 308.837 53.7147 304.437 43.6171 296.609C33.5195 288.781 26.184 277.935 22.6784 265.649C19.1729 253.363 19.6803 240.278 24.1268 228.301C28.5733 216.323 36.7267 206.077 47.4002 199.055Z" fill="url(#paint0_linear_240_6768)"/>
<path d="M21.3756 249.189C21.3756 257.029 22.8884 264.644 25.872 271.821C28.7539 278.754 32.8869 285.005 38.156 290.402C40.7514 293.061 43.6103 295.485 46.6532 297.609C49.7224 299.75 53.0076 301.605 56.4174 303.122C63.4992 306.273 71.0449 307.971 78.8448 308.169L78.8828 308.17L78.9205 308.174C80.0678 308.291 81.2385 308.35 82.4 308.35C85.3808 308.35 88.3379 307.964 91.1894 307.203L91.2263 307.193L91.2638 307.186C98.0033 305.929 104.419 303.521 110.333 300.029C116.123 296.61 121.256 292.258 125.589 287.096C129.954 281.896 133.359 276.046 135.71 269.71C138.143 263.153 139.376 256.248 139.376 249.189C139.376 244.564 138.839 239.958 137.78 235.501C136.751 231.169 135.223 226.949 133.238 222.957C131.289 219.036 128.893 215.323 126.117 211.919C123.357 208.536 120.216 205.453 116.783 202.757L116.4 202.457V201.97L116.4 63.0001C116.4 58.4096 115.501 53.957 113.729 49.766C112.016 45.7174 109.565 42.0811 106.442 38.9583C103.319 35.8355 99.6828 33.3839 95.6342 31.6715C91.4431 29.8988 86.9905 29 82.4 29C77.8096 29 73.357 29.8988 69.1659 31.6715C65.1173 33.3839 61.4811 35.8355 58.3583 38.9583C55.2354 42.0811 52.7838 45.7174 51.0714 49.766C49.2988 53.957 48.3999 58.4096 48.3999 63.0001L48.3999 199.055V199.593L47.9502 199.89C39.9467 205.164 33.2756 212.384 28.6582 220.769C26.3109 225.031 24.5002 229.575 23.2763 234.275C22.0151 239.117 21.3756 244.135 21.3756 249.189ZM20.3756 249.189C20.3756 228.231 31.1185 209.785 47.3999 199.055L47.3999 63.0001C47.3999 43.6699 63.0698 28 82.4 28C101.73 28 117.4 43.6699 117.4 63.0001L117.4 201.97C131.389 212.955 140.376 230.023 140.376 249.189C140.376 278.543 119.296 302.975 91.4472 308.169C88.561 308.94 85.5289 309.35 82.4 309.35C81.1907 309.35 79.9971 309.289 78.8194 309.169C46.4008 308.344 20.3756 281.806 20.3756 249.189Z" fill="white" fill-opacity="0.5"/>
</g>
<path d="M36.5022 250.552C36.5003 242.089 38.8331 233.79 43.244 226.567C47.6548 219.344 53.9726 213.479 61.5022 209.615V159.552H103.502V209.614C110.772 213.344 116.917 218.943 121.305 225.836C125.693 232.728 128.167 240.665 128.47 248.83C128.774 256.995 126.898 265.094 123.034 272.293C119.17 279.493 113.458 285.533 106.486 289.793C99.5139 294.054 91.5327 296.38 83.3633 296.533C75.194 296.686 67.1313 294.66 60.0045 290.664C52.8776 286.668 46.9437 280.845 42.8131 273.795C38.6825 266.746 36.5042 258.723 36.5022 250.552Z" fill="white"/>
</g>
<defs>
<filter id="filter0_f_240_6768" x="16.3755" y="24" width="128.002" height="289.351" filterUnits="userSpaceOnUse" color-interpolation-filters="sRGB">
<feFlood flood-opacity="0" result="BackgroundImageFix"/>
<feBlend mode="normal" in="SourceGraphic" in2="BackgroundImageFix" result="shape"/>
<feGaussianBlur stdDeviation="2" result="effect1_foregroundBlur_240_6768"/>
</filter>
<filter id="filter1_d_240_6768" x="0.375488" y="0" width="180.002" height="341.351" filterUnits="userSpaceOnUse" color-interpolation-filters="sRGB">
<feFlood flood-opacity="0" result="BackgroundImageFix"/>
<feColorMatrix in="SourceAlpha" type="matrix" values="0 0 0 0 0 0 0 0 0 0 0 0 0 0 0 0 0 0 127 0" result="hardAlpha"/>
<feOffset dx="10" dy="2"/>
<feGaussianBlur stdDeviation="15"/>
<feColorMatrix type="matrix" values="0 0 0 0 0.258824 0 0 0 0 0.627451 0 0 0 0 0.941176 0 0 0 0.596 0"/>
<feBlend mode="normal" in2="BackgroundImageFix" result="effect1_dropShadow_240_6768"/>
<feBlend mode="normal" in="SourceGraphic" in2="effect1_dropShadow_240_6768" result="shape"/>
</filter>
<linearGradient id="paint0_linear_240_6768" x1="125.257" y1="141.947" x2="7.20753" y2="169.913" gradientUnits="userSpaceOnUse">
<stop stop-color="white" stop-opacity="0.596"/>
<stop offset="1" stop-color="#F7F7F7" stop-opacity="0.204"/>
</linearGradient>
</defs>
</svg>
