<svg width="175" height="247" viewBox="0 0 175 247" fill="none" xmlns="http://www.w3.org/2000/svg">
<g filter="url(#filter0_f_240_6550)">
<path d="M90.169 4.00004C97.362 4.08004 170.338 118.02 170.338 162.3C170.338 172.828 168.264 183.253 164.235 192.979C160.206 202.706 154.3 211.543 146.856 218.987C131.821 234.022 111.429 242.468 90.167 242.467C68.9049 242.467 48.5138 234.02 33.4795 218.985C18.4453 203.95 9.99947 183.558 10 162.296C10 118.02 82.976 3.92004 90.169 4.00004Z" fill="#42A0F0"/>
<g filter="url(#filter1_f_240_6550)">
<path d="M29.0438 192.263C37.0543 194.712 47.2351 184.638 51.7833 169.761C56.3315 154.885 53.5248 140.84 45.5143 138.39C37.5038 135.941 27.323 146.016 22.7748 160.892C18.2266 175.769 21.0333 189.814 29.0438 192.263Z" fill="white"/>
</g>
<path d="M44.6904 107.507V101.867C44.6904 97.8145 45.5693 94.1279 47.3271 90.8076C49.085 87.4873 51.5996 84.8262 54.8711 82.8242C58.1426 80.8223 62.0244 79.8213 66.5166 79.8213C71.1064 79.8213 75.0127 80.8223 78.2354 82.8242C81.5068 84.8262 84.0215 87.4873 85.7793 90.8076C87.5371 94.1279 88.416 97.8145 88.416 101.867V107.507C88.416 111.462 87.5371 115.1 85.7793 118.42C84.0703 121.74 81.5801 124.401 78.3086 126.403C75.0859 128.405 71.2041 129.406 66.6631 129.406C62.1221 129.406 58.1914 128.405 54.8711 126.403C51.5996 124.401 49.085 121.74 47.3271 118.42C45.5693 115.1 44.6904 111.462 44.6904 107.507ZM54.8711 101.867V107.507C54.8711 109.753 55.2861 111.877 56.1162 113.879C56.9951 115.881 58.3135 117.517 60.0713 118.786C61.8291 120.007 64.0264 120.617 66.6631 120.617C69.2998 120.617 71.4727 120.007 73.1816 118.786C74.8906 117.517 76.1602 115.881 76.9902 113.879C77.8203 111.877 78.2354 109.753 78.2354 107.507V101.867C78.2354 99.5723 77.7959 97.4238 76.917 95.4219C76.0869 93.3711 74.793 91.7354 73.0352 90.5146C71.3262 89.2451 69.1533 88.6104 66.5166 88.6104C63.9287 88.6104 61.7559 89.2451 59.998 90.5146C58.2891 91.7354 56.9951 93.3711 56.1162 95.4219C55.2861 97.4238 54.8711 99.5723 54.8711 101.867ZM96.6191 167.565V161.853C96.6191 157.849 97.498 154.187 99.2559 150.866C101.014 147.546 103.528 144.885 106.8 142.883C110.071 140.881 113.953 139.88 118.445 139.88C123.035 139.88 126.941 140.881 130.164 142.883C133.436 144.885 135.95 147.546 137.708 150.866C139.466 154.187 140.345 157.849 140.345 161.853V167.565C140.345 171.569 139.466 175.231 137.708 178.552C135.999 181.872 133.509 184.533 130.237 186.535C127.015 188.537 123.133 189.538 118.592 189.538C114.051 189.538 110.145 188.537 106.873 186.535C103.602 184.533 101.062 181.872 99.2559 178.552C97.498 175.231 96.6191 171.569 96.6191 167.565ZM106.8 161.853V167.565C106.8 169.812 107.215 171.96 108.045 174.011C108.924 176.013 110.242 177.648 112 178.918C113.758 180.139 115.955 180.749 118.592 180.749C121.229 180.749 123.401 180.139 125.11 178.918C126.868 177.648 128.162 176.013 128.992 174.011C129.822 172.009 130.237 169.86 130.237 167.565V161.853C130.237 159.558 129.798 157.409 128.919 155.407C128.089 153.405 126.795 151.794 125.037 150.573C123.328 149.304 121.131 148.669 118.445 148.669C115.857 148.669 113.685 149.304 111.927 150.573C110.218 151.794 108.924 153.405 108.045 155.407C107.215 157.409 106.8 159.558 106.8 161.853ZM121.814 96.5205L69.7393 179.87L62.1221 175.036L114.197 91.6865L121.814 96.5205Z" fill="white"/>
</g>
<defs>
<filter id="filter0_f_240_6550" x="6" y="0" width="168.338" height="246.467" filterUnits="userSpaceOnUse" color-interpolation-filters="sRGB">
<feFlood flood-opacity="0" result="BackgroundImageFix"/>
<feBlend mode="normal" in="SourceGraphic" in2="BackgroundImageFix" result="shape"/>
<feGaussianBlur stdDeviation="2" result="effect1_foregroundBlur_240_6550"/>
</filter>
<filter id="filter1_f_240_6550" x="0.597015" y="118.024" width="73.364" height="94.606" filterUnits="userSpaceOnUse" color-interpolation-filters="sRGB">
<feFlood flood-opacity="0" result="BackgroundImageFix"/>
<feBlend mode="normal" in="SourceGraphic" in2="BackgroundImageFix" result="shape"/>
<feGaussianBlur stdDeviation="10" result="effect1_foregroundBlur_240_6550"/>
</filter>
</defs>
</svg>
